# xmcd CD database file
#
# Track frame offsets:
#	150
#	16725
#	36152
#	52300
#	69702
#	86727
#	102057
#	114082
#	134437
#	153240
#	173717
#	197522
#
# Disc length: 2875 seconds
#
# Revision: 0
# Processed by: cddbd v1.5.1PL0 Copyright (c) Steve Scherf et al.
# Submitted via: CDex 1.51
#
DISCID=970b390c
DTITLE=Hugo - Universal Carnival
DYEAR=1996
DGENRE=Jazz
TTITLE0=Universal Carnival
TTITLE1=Hole In My Heart
TTITLE2=Close To Me
TTITLE3=Mother Nature
TTITLE4=Do You Remember
TTITLE5=All You Need
TTITLE6=Somewhere
TTITLE7=Magic Box
TTITLE8=Stolen
TTITLE9=Gimme Gimme
TTITLE10=My Love You Song
TTITLE11=Haunting Girl
EXTD=YEAR: 1996
EXTT0=
EXTT1=
EXTT2=
EXTT3=
EXTT4=
EXTT5=
EXTT6=
EXTT7=
EXTT8=
EXTT9=
EXTT10=
EXTT11=
PLAYORDER=
